<?xml version="1.0" standalone="no"?>
<!DOCTYPE svg PUBLIC "-//W3C//DTD SVG 20010904//EN"
 "http://www.w3.org/TR/2001/REC-SVG-20010904/DTD/svg10.dtd">
<svg version="1.0" xmlns="http://www.w3.org/2000/svg"
 width="512.000000pt" height="512.000000pt" viewBox="0 0 512.000000 512.000000"
 preserveAspectRatio="xMidYMid meet">
<metadata>
Created by potrace 1.11, written by Peter Selinger 2001-2013
</metadata>
<g transform="translate(0.000000,512.000000) scale(0.100000,-0.100000)"
fill="#000000" stroke="none">
<path d="M755 5106 c-22 -7 -60 -23 -85 -36 -49 -25 -140 -108 -140 -127 0 -7
-4 -13 -9 -13 -8 0 -25 -35 -37 -75 -1 -5 -7 -26 -13 -45 -8 -24 -10 -708 -9
-2270 3 -2196 3 -2236 23 -2283 10 -26 23 -47 27 -47 4 0 8 -7 8 -15 0 -18
101 -125 117 -125 6 0 13 -5 15 -11 2 -6 35 -22 73 -35 l70 -24 1775 3 c976 1
1788 6 1804 10 54 15 121 55 166 100 61 62 65 67 92 123 l23 49 0 2270 c0
2234 0 2271 -20 2315 -28 64 -109 170 -130 170 -4 0 -13 6 -21 14 -8 8 -40 25
-71 38 l-58 23 -1780 2 c-1415 1 -1788 -1 -1820 -11z"/>
</g>
</svg>
